<?xml version="1.0" encoding="UTF-8" standalone="no"?>
<!-- Created with Inkscape (http://www.inkscape.org/) -->

<svg
   xmlns:dc="http://purl.org/dc/elements/1.1/"
   xmlns:cc="http://creativecommons.org/ns#"
   xmlns:rdf="http://www.w3.org/1999/02/22-rdf-syntax-ns#"
   xmlns:svg="http://www.w3.org/2000/svg"
   xmlns="http://www.w3.org/2000/svg"
   xmlns:sodipodi="http://sodipodi.sourceforge.net/DTD/sodipodi-0.dtd"
   xmlns:inkscape="http://www.inkscape.org/namespaces/inkscape"
   width="120px"
   height="120px"
   viewBox="0 0 120 120"
   version="1.1"
   id="SVGRoot"
   inkscape:version="0.92.4 (5da689c313, 2019-01-14)"
   sodipodi:docname="gokaku.svg"
   inkscape:export-filename="D:\Documents\script\Idea\僕たちの平成\gokaku.png"
   inkscape:export-xdpi="96"
   inkscape:export-ydpi="96">
  <defs
     id="defs10" />
  <sodipodi:namedview
     id="base"
     pagecolor="#ffffff"
     bordercolor="#666666"
     borderopacity="1.0"
     inkscape:pageopacity="0.0"
     inkscape:pageshadow="2"
     inkscape:zoom="2.1333333"
     inkscape:cx="-16.171875"
     inkscape:cy="60"
     inkscape:document-units="px"
     inkscape:current-layer="layer1"
     showgrid="false"
     inkscape:window-width="801"
     inkscape:window-height="429"
     inkscape:window-x="128"
     inkscape:window-y="128"
     inkscape:window-maximized="0"
     inkscape:grid-bbox="true" />
  <metadata
     id="metadata13">
    <rdf:RDF>
      <cc:Work
         rdf:about="">
        <dc:format>image/svg+xml</dc:format>
        <dc:type
           rdf:resource="http://purl.org/dc/dcmitype/StillImage" />
        <dc:title></dc:title>
      </cc:Work>
    </rdf:RDF>
  </metadata>
  <g
     inkscape:label="レイヤー 1"
     inkscape:groupmode="layer"
     id="layer1">
    <ellipse
       id="path23"
       cx="59.765625"
       cy="58.359375"
       rx="51.796875"
       ry="50.859375"
       style="fill:none" />
    <path
       style="fill:none;stroke:#ff0000;stroke-width:3;stroke-miterlimit:4;stroke-dasharray:none;stroke-opacity:1"
       d="M 51.796875,108.35232 C 28.922088,105.0998 9.2932888,84.838433 8.4132471,61.474486 7.1930931,44.702631 15.227563,27.804306 28.821952,17.96332 46.247351,4.7582428 72.100481,4.4203998 89.797301,17.297024 106.81537,28.961844 115.19263,51.70281 109.46316,71.579389 103.77075,93.450634 82.027545,109.38177 59.553774,108.97212 c -2.596317,-0.0112 -5.191729,-0.21873 -7.756899,-0.6198 z"
       id="path27"
       inkscape:connector-curvature="0" />
    <path
       style="font-style:normal;font-weight:normal;font-size:60.07268143px;line-height:1.25;font-family:sans-serif;letter-spacing:0px;word-spacing:0px;writing-mode:tb-rl;fill:#ff2a2a;fill-opacity:1;stroke:none;stroke-width:1.50181723"
       d="m 62.007211,12.852291 c 7.596982,6.240975 18.39782,10.685617 30.124197,12.991071 -0.974894,1.443452 -1.949787,2.886904 -2.92468,4.330357 -12.368257,-2.866786 -23.632084,-7.944335 -31.294069,-14.873835 -3.302326,4.4213 -8.306964,8.34074 -14.623397,11.108307 10.821314,0 21.642628,0 32.463941,0 0,1.192417 0,2.384834 0,3.577251 -10.918803,0 -21.837605,0 -32.756409,0 0,-1.129658 0,-2.259317 0,-3.388974 -3.741789,1.644482 -8.763181,4.710548 -12.788527,4.454096 -1.196559,-1.045387 -2.393118,-2.090775 -3.589677,-3.136162 11.883655,-3.508416 23.132258,-9.093813 28.076922,-17.133151 2.779712,0.373704 5.602566,0.632611 8.353615,1.082589 0.770525,0.40451 -0.907862,0.822058 -1.041916,0.988451 z M 43.58173,53.143438 c -1.949786,0 -3.899571,0 -5.849358,0 0,-6.213121 0,-12.426242 0,-18.639362 14.525907,0 29.051815,0 43.577722,0 0,6.024844 0,12.049688 0,18.074533 -1.949786,0 -3.899573,0 -5.849358,0 0.01312,-1.124938 0.570294,-2.600108 -1.985912,-2.071041 -9.964364,0 -19.928729,0 -29.893094,0 0,0.878623 0,1.757247 0,2.63587 z m 0,-6.213121 c 10.626336,0 21.25267,0 31.879006,0 0,-2.949663 0,-5.899327 0,-8.84899 -10.626336,0 -21.25267,0 -31.879006,0 0,2.949663 0,5.899327 0,8.84899 z M 90.961536,84.773871 C 83.74474,83.22021 76.716807,81.100539 70.781248,77.995918 c -5.442052,3.100665 -11.921571,5.31657 -18.425479,7.342777 -0.66093,-0.839032 -1.151578,-2.561962 -1.916294,-2.862262 -1.451138,1.33483 -2.830955,3.525757 -4.266662,0.594125 -2.002429,-2.038002 -3.855256,-2.762619 -3.176019,-0.0589 0,6.235695 0,12.471391 0,18.707082 -1.949785,0 -3.899572,0 -5.849358,0 0,-6.903463 0,-13.806931 0,-20.710398 -1.809442,2.988478 -4.989504,8.169802 -8.669707,8.961632 -1.107159,-1.041687 -2.214318,-2.083374 -3.321478,-3.125069 5.645286,-4.616436 10.190147,-9.965007 11.698717,-15.815213 -3.314636,0 -6.629273,0 -9.94391,0 0,-1.192417 0,-2.384834 0,-3.577251 3.412127,0 6.824252,0 10.236378,0 0,-2.886905 0,-5.77381 0,-8.660714 2.101945,0.1102 4.347478,-0.239797 6.342898,0.211811 -0.454015,0.957637 -0.62629,2.500016 -0.49354,3.839976 0,1.536309 0,3.072618 0,4.608927 2.827191,0 5.65438,0 8.481571,0 0,1.192417 0,2.384834 0,3.577251 -2.827191,0 -5.65438,0 -8.481571,0 0,1.882764 0,3.765527 0,5.648291 4.073042,0.548215 6.308114,4.752438 10.114421,3.866469 4.85424,-1.234496 9.699152,-2.6994 13.575482,-4.996127 -2.428864,-1.049623 -4.46547,-5.284998 -5.991023,-4.636306 -1.955106,1.597106 -4.955351,6.229689 -7.847741,5.099777 -0.735492,-0.913104 -4.052093,-1.869558 -2.766217,-2.748712 6.428204,-3.989079 11.004947,-9.209496 12.802898,-14.84791 2.047276,0.313794 4.094551,0.627588 6.141827,0.941382 0.09033,0.866108 -2.078404,2.051938 -2.223119,3.540296 -1.315977,1.424975 2.320771,0.551939 3.56273,0.790061 3.745503,0 7.491006,0 11.23651,0 0.990573,-1.648353 2.425076,-0.164333 3.742554,0.493961 2.960589,0.984913 0.398702,1.244029 -0.436296,2.558911 -2.642041,3.189416 -5.945849,6.14636 -9.740552,8.80854 5.657308,2.375397 11.97164,4.032668 18.425479,5.27174 -0.877404,1.317932 -1.754807,2.635865 -2.632211,3.953806 z M 79.847754,100.77736 c 0.249302,-1.275098 0.184019,-2.347683 -2.269612,-1.882759 -4.995332,0 -9.990664,0 -14.985996,0 -0.426364,0.847657 1.044339,2.916559 -1.134806,2.635869 -1.412779,-0.22394 -4.237852,0.46128 -4.714553,-0.36527 0,-5.652055 0,-11.304104 0,-16.956161 9.651442,0 19.302884,0 28.954325,0 0,5.522776 0,11.045551 0,16.568321 -1.949785,0 -3.899572,0 -5.849358,0 z m 0,-4.895187 c 0,-2.886902 0,-5.773804 0,-8.660714 -5.751869,0 -11.503738,0 -17.255608,0 0,2.88691 0,5.773812 0,8.660714 5.75187,0 11.503739,0 17.255608,0 z M 71.073716,73.100732 c 2.388343,-1.582051 7.224954,-5.022172 6.168126,-6.401397 -4.298296,0 -8.596592,0 -12.894888,0 1.716312,2.338561 3.981288,4.511633 6.726762,6.401397 z"
       id="text33"
       inkscape:connector-curvature="0" />
  </g>
</svg>
